<?xml version="1.0" encoding="utf-8"?>
<!-- Generator: Adobe Illustrator 23.0.1, SVG Export Plug-In . SVG Version: 6.00 Build 0)  -->
<svg version="1.1" id="Capa_1" xmlns="http://www.w3.org/2000/svg" xmlns:xlink="http://www.w3.org/1999/xlink" x="0px" y="0px"
	 viewBox="0 0 476.7 436" style="enable-background:new 0 0 476.7 436;" xml:space="preserve">
<style type="text/css">
	.st0{fill:none;stroke:#FFFFFF;stroke-width:25;stroke-miterlimit:10;}
	.st1{fill:#FFFFFF;}
</style>
<path class="st0" d="M458.8,359.5L275.4,33.8c-15.6-28.4-58.3-28.4-74,0L17.9,359.5c-15.6,28.4,4.3,64,37,64h365.5
	C454.6,422.1,474.5,388,458.8,359.5z"/>
<g>
	<path class="st1" d="M208.5,204.5l11.4,75.4c1.4,8.5,8.5,15.6,18.5,15.6l0,0c8.5,0,17.1-7.1,18.5-15.6l11.4-75.4
		c2.8-18.5-11.4-34.1-29.9-34.1l0,0C219.9,170.4,207.1,186,208.5,204.5z"/>
	<circle class="st1" cx="238.4" cy="328.2" r="17.1"/>
</g>
</svg>
