<svg id="Layer_1" data-name="Layer 1" xmlns="http://www.w3.org/2000/svg" viewBox="0 0 174.44 174.22"><title>invite</title><path d="M87.59,174.22h-.48a9.18,9.18,0,0,0-1-.2c-4-.33-8.07-.4-12-1a83.81,83.81,0,0,1-50.2-26.54C5.18,126.21-2.32,102.14,1.3,74.87a82.55,82.55,0,0,1,26-50.5c21-19.71,46-27.34,74.39-22.94a82.11,82.11,0,0,1,49.05,26.25c20.73,22.63,27.76,49.26,21.27,79.18-4.13,19.06-14.18,34.82-29.21,47.24A84.93,84.93,0,0,1,88.49,174,4.13,4.13,0,0,0,87.59,174.22ZM58.91,62.38A26.53,26.53,0,1,0,85.86,36,26.54,26.54,0,0,0,58.91,62.38ZM110.79,118c.79-9.91,5.42-16.82,15-20.17-2.89-4.5-6.3-8.36-11.24-10.56A12.5,12.5,0,0,0,100,89.91c-1.46,1.42-2.81,3-4.26,4.39a13.52,13.52,0,0,1-11.61,3.89,16.57,16.57,0,0,1-8.27-3.83c-2.11-1.64-4.12-3.43-6.29-5-6.3-4.54-13.72-4.39-19.9.31C41.1,96.18,38,107.52,41.9,118Zm2.6,1.67a20.64,20.64,0,1,0,20.7-20.58A20.66,20.66,0,0,0,113.39,119.64Z"/><path d="M134.23,103.78a15.9,15.9,0,1,1-16.12,15.81A16,16,0,0,1,134.23,103.78Zm-2.87,18.57v8.85h5.4v-8.87h8.78V117h-8.8v-8.78h-5.43V117h-8.72v5.34Z"/></svg>