<?xml version="1.0" encoding="utf-8"?>
<!-- Generator: Adobe Illustrator 23.0.1, SVG Export Plug-In . SVG Version: 6.00 Build 0)  -->
<svg version="1.1" id="Layer_1" xmlns="http://www.w3.org/2000/svg" xmlns:xlink="http://www.w3.org/1999/xlink" x="0px" y="0px"
	 viewBox="0 0 173.9 174" style="enable-background:new 0 0 173.9 174;" xml:space="preserve">
<g>
	<path d="M87.2,174c-0.2,0-0.3,0-0.5,0c-0.3-0.1-0.7-0.2-1-0.2c-4-0.3-8.1-0.4-12.1-1c-19.8-3-36.7-11.9-50.2-26.5
		C4.8,126-2.7,101.9,0.9,74.6c2.6-19.8,11.4-36.8,25.9-50.5c21-19.7,46-27.3,74.4-22.9c19.3,3,35.8,11.8,49,26.3
		c20.7,22.6,27.8,49.3,21.3,79.2c-4.1,19.1-14.2,34.8-29.2,47.2c-15.7,13-33.8,19.6-54.3,19.9C87.8,173.8,87.5,173.9,87.2,174z
		 M85.1,49.4c-11.7,0-23.4,0-35,0c-1,0-1.9,0.2-2.6,1C41,57.8,34.5,65.2,28,72.6c-1.1,1.3-1.1,2.3,0.1,3.6
		c18.3,20.6,36.6,41.3,54.9,61.9c1.4,1.6,2.8,1.6,4.1,0c18.2-20.6,36.5-41.1,54.7-61.7c1.4-1.6,1.4-2.5,0-4.1
		c-6.3-7.2-12.7-14.3-19-21.5c-0.9-1-1.8-1.4-3.1-1.4C108.2,49.4,96.6,49.4,85.1,49.4z M113,119.4c0,11.3,9.2,20.7,20.3,20.7
		c11.6,0,20.9-9,20.9-20.3c0-11.7-9-20.9-20.4-20.9C122.2,98.8,113,107.9,113,119.4z"/>
	<path d="M80,127.7c-15.2-17.1-30.1-34-45.2-50.9c0.5,0,0.8-0.1,1.1-0.1c8.2,0,16.5,0,24.7,0c0.7,0,1.1,0.1,1.3,0.8
		c6,16.5,11.9,33,17.9,49.5C79.9,127.1,79.9,127.3,80,127.7z"/>
	<path d="M85.1,56.3c5.2,5,10.6,10.3,16.1,15.7c-10.9,0-21.6,0-32.2,0C74.4,66.6,79.9,61.3,85.1,56.3z"/>
	<path d="M90.5,54.1c8.5,0,17.1,0,25.9,0c-3.4,5.5-6.7,10.8-9.8,15.8C101.3,64.7,95.9,59.4,90.5,54.1z"/>
	<path d="M63.4,69.8c-3-4.9-6.3-10.2-9.7-15.7c8.8,0,17.3,0,26.1,0C74.2,59.4,68.8,64.6,63.4,69.8z"/>
	<path d="M34.8,71.9c4.8-5.5,9.5-10.8,14.3-16.2c3.4,5.4,6.7,10.8,10.1,16.2C51,71.9,43,71.9,34.8,71.9z"/>
	<path d="M135.3,72c-8.1,0-15.8,0-23.6,0c-0.2,0-0.5,0-0.9,0c3.4-5.5,6.7-10.8,10.1-16.3C125.7,61.1,130.4,66.4,135.3,72z"/>
	<path d="M133.6,103.6c8.7,0,15.9,7.1,15.9,15.9c0,8.7-7.1,15.9-15.7,15.9c-8.9,0.1-16.1-7.1-16.1-15.9
		C117.7,110.7,124.9,103.6,133.6,103.6z M122.2,116.8c0,1.8,0,3.6,0,5.4c3,0,5.8,0,8.8,0c0,3,0,5.9,0,8.7c1.8,0,3.6,0,5.4,0
		c0-3,0-5.9,0-8.8c3,0,5.9,0,8.8,0c0-1.8,0-3.5,0-5.4c-3,0-5.8,0-8.9,0c0-3,0-5.9,0-8.8c-1.8,0-3.5,0-5.4,0c0,3,0,5.8,0,8.8
		C127.9,116.8,125.1,116.8,122.2,116.8z"/>
	<path d="M66.6,76.8c6.1,16.9,12.2,33.7,18.4,50.8c0.2-0.6,0.4-0.9,0.5-1.1c2.7-7.2,5.3-14.4,8-21.6c1.7-4.5,3.3-9,5-13.5
		c0.6-1.7,2.4-2.2,3.7-1.3c0.9,0.7,1.1,1.7,0.6,3.1c-2.9,7.8-5.8,15.7-8.7,23.5c-1.3,3.4-2.5,6.9-3.8,10.3c0.1,0.1,0.2,0.1,0.3,0.2
		c14.9-16.8,29.7-33.5,44.7-50.4C112.2,76.8,89.5,76.8,66.6,76.8z M103.5,85.7c-1.3,0-2.3-1-2.3-2.3s1-2.3,2.3-2.3s2.3,1,2.3,2.3
		S104.7,85.7,103.5,85.7z"/>
</g>
</svg>
