<?xml version="1.0" encoding="utf-8"?>
<!-- Generator: Adobe Illustrator 23.0.1, SVG Export Plug-In . SVG Version: 6.00 Build 0)  -->
<svg version="1.1" id="Layer_1" xmlns="http://www.w3.org/2000/svg" xmlns:xlink="http://www.w3.org/1999/xlink" x="0px" y="0px"
	 viewBox="0 0 47.3 75.2" style="enable-background:new 0 0 47.3 75.2;" xml:space="preserve">
<style type="text/css">
	.st0{fill:#04579B;}
	.st1{fill:#D1EAFA;}
	.st2{fill:#E9F6F8;}
	.st3{fill:#E3F4FC;}
	.st4{fill:#D9EFFC;}
	.st5{fill:#DAF0FC;}
	.st6{fill:#E7F5FA;}
	.st7{fill:#CCE8F9;}
	.st8{fill:#CBE7F8;}
	.st9{fill:#DCF2FD;}
	.st10{fill:#E4F4F9;}
	.st11{fill:#ECF7FB;}
	.st12{fill:#CCE7F9;}
	.st13{fill:#EDF8FA;}
	.st14{fill:#C9E6F8;}
	.st15{fill:#C8E5F8;}
</style>
<title>treasure-logo1</title>
<g>
	<g id="Layer_2-2">
		<path class="st0" d="M47.3,28.8L47.3,28.8l-5.1,13.9l0,0l-3.5,7.5l3,11.9l0,0l0,0l0,0l0,0l0,0l-20.2,13h-0.1l0,0l0,0l0,0L6.8,64.8
			l0,0l0,0l0,0l0,0l0,0L0,25.4l0,0l0,0l0,0l0,0l0,0l0,0L25,0l0,0l0,0l0,0l0,0l0,0l0,0l16,20.6l1,1l0,0l5.2,7l0,0l0,0l0,0
			C47.2,28.7,47.3,28.8,47.3,28.8z M47,28.7l-5.1-6.8L41.5,22l2.9,7.9L47,28.7z M42.4,41.3L47,29l-2.6,1.2L42.4,41.3z M42,42.6
			l2.2-12.4l-3.3,0.3l0,0l-1.8,0.1l-5.3,0.5l4.9,18.8L42,42.6z M44.1,29.9L41.2,22L41,21.9l-0.8,7.6l0.6,0.7L44.1,29.9z M41.8,21.7
			l-0.6-0.6l-0.1,0.6l0.3,0.1L41.8,21.7z M41.5,61.9l-3-11.6v-0.1l0,0l-5-19.1l-1.3,0.6l-6.9,9.7L34.8,59l1.4,0.9L41.5,61.9z
			 M21.7,74.8l19.7-12.7l-5.3-2l-1.3,0.4l-10.2,8.2l0,0l-1.4,1L21.7,74.8z M40.9,20.8L25.1,0.4l-2.8,19.9l0.2,1.3l9.6,8.6l1.6,0.6
			l5.4-0.5l1-0.8L40.9,20.8z M40.6,30.3l-0.4-0.5l-0.7,0.5H40.6z M34.8,60.3l1-0.3l-1-0.7V60.3z M34.5,60.4v-1.3l-9.4-17.5l-1.4,0.3
			L13,59.7l0.6,1.5l8.3,6.8l2.6,0.5L34.5,60.4z M32.2,31.4l1-0.5L32,30.4L32.2,31.4z M32,31.6l-0.2-1.2L22.4,22l1.8,18l1,1.2
			L32,31.6z M25,41.3l-0.8-1l-0.4,1.3L25,41.3z M22.1,20.2l2.8-19.8L1.1,24.5L1.6,25l19.1-4L22.1,20.2z M23.1,69.4l1.1-0.8l-2-0.4
			L23.1,69.4z M23.9,40.1l-1.7-18.3l-1.5-0.5L0.3,25.5l6.6,39l4.6-3.6l1.2-1.2l10.8-17.8L23.9,40.1z M22.9,69.6l-1.2-1.4l-8.3-6.8
			l-1.8-0.3L7,64.8L21.4,75L22.9,69.6z M22.2,21.5l-0.1-1L21,21.1L22.2,21.5z M13.3,61.1l-0.5-1.2l-1,1L13.3,61.1z M0.5,25.2L1.3,25
			L1,24.8L0.5,25.2z"/>
		<polygon class="st1" points="41.9,21.9 47,28.7 44.4,29.9 41.5,22 		"/>
		<polygon class="st2" points="47,29 42.4,41.3 44.4,30.1 		"/>
		<polygon class="st3" points="44.2,30.2 42,42.6 38.6,49.8 33.7,31.1 39.1,30.6 40.8,30.5 40.9,30.5 		"/>
		<polygon class="st2" points="41.2,22 44.1,29.9 40.9,30.2 40.3,29.5 41,21.9 		"/>
		<polygon class="st4" points="41.1,21 41.8,21.7 41.3,21.8 41.1,21.6 		"/>
		<path class="st3" d="M38.5,50.3l3,11.6l-5.4-2l-1.4-1l-9.4-17.5l6.9-9.7l1.3-0.6l4.9,19.1l0,0C38.4,50.3,38.4,50.3,38.5,50.3z"/>
		<polygon class="st5" points="41.4,62.2 21.7,74.8 23.2,69.7 24.6,68.7 24.6,68.7 34.7,60.6 36,60.1 		"/>
		<polygon class="st6" points="25.1,0.4 40.9,20.8 40,29.5 39,30.3 33.6,30.8 32,30.2 22.5,21.6 22.3,20.3 		"/>
		<polygon class="st7" points="40.1,29.8 40.6,30.3 39.5,30.3 		"/>
		<polygon class="st8" points="35.8,60 34.8,60.3 34.8,59.3 		"/>
		<polygon class="st9" points="34.5,59.1 34.5,60.4 24.5,68.5 21.9,68 13.6,61.2 13,59.7 23.7,41.9 25.1,41.6 		"/>
		<polygon class="st10" points="33.3,31 32.3,31.5 32.1,30.5 		"/>
		<polygon class="st11" points="31.9,30.4 32,31.6 25.2,41.2 24.2,40 22.5,22 		"/>
		<polygon class="st8" points="24.1,40.4 25,41.3 23.8,41.6 		"/>
		<polygon class="st11" points="24.9,0.5 22.1,20.2 20.7,21 1.6,25 1.1,24.5 		"/>
		<polygon class="st12" points="24.2,68.7 23.1,69.4 22.2,68.3 		"/>
		<polygon class="st3" points="22.2,21.8 24,40.1 23.5,41.7 12.8,59.6 11.5,60.9 6.9,64.5 0.3,25.5 20.7,21.3 		"/>
		<polygon class="st13" points="21.8,68.2 22.9,69.7 21.4,74.9 7,64.7 11.6,61.1 13.4,61.4 		"/>
		<polygon class="st14" points="22.1,20.5 22.2,21.5 21,21.1 		"/>
		<polygon class="st12" points="12.8,59.9 13.3,61.1 11.8,60.9 		"/>
		<polygon class="st15" points="1.3,25 0.5,25.2 1,24.7 		"/>
	</g>
</g>
</svg>
