<?xml version="1.0" encoding="utf-8"?>
<!-- Generator: Adobe Illustrator 23.0.1, SVG Export Plug-In . SVG Version: 6.00 Build 0)  -->
<svg version="1.1" xmlns="http://www.w3.org/2000/svg" xmlns:xlink="http://www.w3.org/1999/xlink" x="0px" y="0px"
	 viewBox="0 0 660 628.7" style="enable-background:new 0 0 660 628.7;" xml:space="preserve">
<style type="text/css">
	.st0{fill:#F3CC30;}
	.st1{fill:#F7DB5E;}
</style>
<g id="BG">
</g>
<g id="Object">
	<g>
		<path class="st0" d="M339.5,5.9l93.8,190c1.5,3.1,4.5,5.3,8,5.8l209.7,30.5c8.7,1.3,12.2,11.9,5.9,18.1L505.1,398.1
			c-2.5,2.4-3.6,5.9-3,9.4l35.8,208.8c1.5,8.7-7.6,15.2-15.4,11.2l-187.5-98.6c-3.1-1.6-6.8-1.6-9.9,0l-187.5,98.6
			c-7.8,4.1-16.9-2.5-15.4-11.2L158,407.5c0.6-3.4-0.5-6.9-3-9.4L3.2,250.2c-6.3-6.1-2.8-16.8,5.9-18.1l209.7-30.5
			c3.4-0.5,6.4-2.7,8-5.8l93.8-190C324.4-2,335.6-2,339.5,5.9z"/>
		<g>
			<path class="st1" d="M330,49.8l-83.6,161.9c-4.4,8.5-12.8,14.2-22.3,15L42.7,243.2l191.7,9c12.2,0.6,23.3-6.8,27.5-18.2L330,49.8
				z"/>
		</g>
	</g>
</g>
</svg>
