<?xml version="1.0" encoding="utf-8"?>
<!-- Generator: Adobe Illustrator 23.0.1, SVG Export Plug-In . SVG Version: 6.00 Build 0)  -->
<svg version="1.1" id="Layer_1" xmlns="http://www.w3.org/2000/svg" xmlns:xlink="http://www.w3.org/1999/xlink" x="0px" y="0px"
	 viewBox="0 0 55.3 49.5" style="enable-background:new 0 0 55.3 49.5;" xml:space="preserve">
<style type="text/css">
	.st0{fill:#D75A4A;}
</style>
<title>unlike</title>
<g>
	<g id="Layer_2-2">
		<path class="st0" d="M27.7,49.5L8.8,32.7c-3.5-3.8-5.6-6.1-7-9.5c-1.4-2.8-2-6-1.8-9.1C0.2,6.8,6.7,1.6,12.6,0.3
			c5.8-1.2,11.7,1.2,15,6.1c3.3-4.9,9.2-7.3,15-6.1c6,1.3,12.5,6.5,12.7,13.7c0.2,3.1-0.4,6.3-1.7,9.1c-1.5,3.4-3.5,5.7-7,9.5
			l-0.1,0.1L27.7,49.5z M11,30.6l16.7,14.9l16.7-14.9c3.3-3.5,5.2-5.7,6.5-8.7c1.2-2.4,1.7-5.1,1.5-7.8l0,0
			C52.2,8.6,47,4.3,42.1,3.2c-5.4-1.1-10.9,1.8-13,6.9l-0.8,1.9c-0.1,0.3-0.5,0.5-0.8,0.4c-0.2-0.1-0.3-0.2-0.4-0.4l-0.8-1.9
			c-2.1-5.1-7.6-8-13-6.9C8.4,4.3,3.2,8.6,3,14.1c-0.2,2.7,0.3,5.4,1.5,7.8C5.8,24.9,7.7,27,11,30.6z"/>
	</g>
</g>
</svg>
