<svg xmlns="http://www.w3.org/2000/svg" viewBox="0 0 55.35 49.48"><defs><style>.cls-1{fill:#d75a4a;}</style></defs><title>unlike</title><g id="Layer_2" data-name="Layer 2"><g id="Layer_2-2" data-name="Layer 2"><path class="cls-1" d="M27.67,49.48,8.82,32.65c-3.51-3.81-5.57-6.14-7-9.55A18.29,18.29,0,0,1,0,14C.25,6.81,6.69,1.59,12.64.32a14.48,14.48,0,0,1,15,6.13,14.5,14.5,0,0,1,15-6.13C48.65,1.59,55.09,6.8,55.31,14a18.24,18.24,0,0,1-1.73,9.14c-1.49,3.41-3.54,5.74-7,9.55l-.11.11ZM11,30.57,27.67,45.46l16.7-14.89c3.26-3.55,5.17-5.71,6.46-8.67a15.2,15.2,0,0,0,1.48-7.8v0C52.15,8.63,47,4.3,42.08,3.25a11.55,11.55,0,0,0-13,6.92l-.79,1.89a.65.65,0,0,1-1.2,0l-.78-1.89a11.54,11.54,0,0,0-13-6.92C8.37,4.3,3.2,8.63,3,14.07A15.27,15.27,0,0,0,4.52,21.9C5.81,24.86,7.72,27,11,30.57Z"/></g></g></svg>